<svg
  width="300"
  height="120"
  viewBox="0 0 300 120"
  xmlns="http://www.w3.org/2000/svg"
>

  <defs>
    <radialGradient id="center-dark" cx="40%" cy="35%" r="50%">
      <stop offset="0%" stop-color="#fff" stop-opacity="0.5"/>
      <stop offset="100%" stop-color="#7BA800" stop-opacity="0"/>
    </radialGradient>
  </defs>

  <!-- Flower group -->
  <g transform="translate(52,60)">
    <!-- Petals -->
    <g fill="#e6e6e6" stroke="#2b2b2b" stroke-width="3">
      <ellipse cx="0" cy="-28" rx="9" ry="20" transform="rotate(0, 0, 0)"/>
      <ellipse cx="0" cy="-28" rx="9" ry="20" transform="rotate(40, 0, 0)"/>
      <ellipse cx="0" cy="-28" rx="9" ry="20" transform="rotate(80, 0, 0)"/>
      <ellipse cx="0" cy="-28" rx="9" ry="20" transform="rotate(120, 0, 0)"/>
      <ellipse cx="0" cy="-28" rx="9" ry="20" transform="rotate(160, 0, 0)"/>
      <ellipse cx="0" cy="-28" rx="9" ry="20" transform="rotate(200, 0, 0)"/>
      <ellipse cx="0" cy="-28" rx="9" ry="20" transform="rotate(240, 0, 0)"/>
      <ellipse cx="0" cy="-28" rx="9" ry="20" transform="rotate(280, 0, 0)"/>
      <ellipse cx="0" cy="-28" rx="9" ry="20" transform="rotate(320, 0, 0)"/>
    </g>

    <!-- Center -->
    <circle cx="0" cy="0" r="14" fill="#7BA800" stroke="#2b2b2b" stroke-width="3"/>
    <!-- Glare -->
    <circle cx="0" cy="0" r="14" fill="url(#center-dark)"/>
  </g>

  <!-- Text -->
  <text x="106" y="72"
        font-family="Inter, Arial, sans-serif"
        font-size="56"
        font-weight="700"
        fill="#ffffff">
    AIZA
  </text>

</svg>
